<svg fill-opacity="1" xmlns:xlink="http://www.w3.org/1999/xlink" color-rendering="auto" color-interpolation="auto" stroke="black" text-rendering="auto" stroke-linecap="square" stroke-miterlimit="10" stroke-opacity="1" shape-rendering="auto" fill="black" stroke-dasharray="none" font-weight="normal" stroke-width="1" xmlns="http://www.w3.org/2000/svg" font-family="&apos;Dialog&apos;" font-style="normal" stroke-linejoin="miter" font-size="12" stroke-dashoffset="0" image-rendering="auto">
      <path d="M213.4688 312.1875 Q213.4688 352.8281 184.6406 381.5859 Q155.8125 410.3438 115.1719 410.3438 Q74.5312 410.3438 45.7734 381.5859 Q17.0156 352.8281 17.0156 312.1875 Q17.0156 271.5469 45.7734 242.7188 Q74.5312 213.8906 115.1719 213.8906 Q155.8125 213.8906 184.6406 242.7188 Q213.4688 271.5469 213.4688 312.1875 ZM169.5938 247.9219 Q146.25 227.8125 115.1719 227.8125 Q84.0938 227.8125 60.75 247.9219 L115.1719 302.3438 L169.5938 247.9219 ZM199.5469 312.1875 Q199.5469 281.1094 179.4375 257.7656 L125.0156 312.1875 L179.4375 366.6094 Q199.5469 343.2656 199.5469 312.1875 ZM105.4688 312.1875 L50.9062 257.7656 Q30.7969 281.1094 30.7969 312.1875 Q30.7969 343.2656 50.9062 366.6094 L105.4688 312.1875 ZM169.5938 376.3125 L115.1719 321.8906 L60.75 376.3125 Q84.2344 396.5625 115.1719 396.5625 Q146.1094 396.5625 169.5938 376.3125 Z" stroke="none" />
</svg>
